HIERARCHY
ROOT joint_Root
{
  OFFSET 0 0 0
  CHANNELS 6 Xposition Yposition Zposition Zrotation Xrotation Yrotation
  JOINT Hips
  {
    OFFSET 0 93.9241 -3
    CHANNELS 6 Xposition Yposition Zposition Zrotation Xrotation Yrotation
    JOINT Spine
    {
      OFFSET 15.7357 0 0
      CHANNELS 6 Xposition Yposition Zposition Zrotation Xrotation Yrotation
      JOINT Chest
      {
        OFFSET 8.98455 -0.406207 0
        CHANNELS 6 Xposition Yposition Zposition Zrotation Xrotation Yrotation
        JOINT Neck
        {
          OFFSET 16.3773 0 0
          CHANNELS 6 Xposition Yposition Zposition Zrotation Xrotation Yrotation
          JOINT Head
          {
            OFFSET 6.45672 0 0
            CHANNELS 6 Xposition Yposition Zposition Zrotation Xrotation Yrotation
            End Site
            {
              OFFSET 0 0 0
            }
          }
        }
        JOINT Shoulder_L
        {
          OFFSET 12.9942 -0.242716 4.98039
          CHANNELS 6 Xposition Yposition Zposition Zrotation Xrotation Yrotation
          JOINT UpperArm_L
          {
            OFFSET 5.34809 0 0
            CHANNELS 6 Xposition Yposition Zposition Zrotation Xrotation Yrotation
            JOINT LowerArm_L
            {
              OFFSET 24.3286 1.87007e-05 0
              CHANNELS 6 Xposition Yposition Zposition Zrotation Xrotation Yrotation
              JOINT Hand_L
              {
                OFFSET 22.2916 0 0
                CHANNELS 6 Xposition Yposition Zposition Zrotation Xrotation Yrotation
                End Site
                {
                  OFFSET 0 0 0
                }
              }
            }
          }
        }
        JOINT Shoulder_R
        {
          OFFSET 12.9945 -0.242716 -4.98039
          CHANNELS 6 Xposition Yposition Zposition Zrotation Xrotation Yrotation
          JOINT UpperArm_R
          {
            OFFSET -5.34813 0 0
            CHANNELS 6 Xposition Yposition Zposition Zrotation Xrotation Yrotation
            JOINT LowerArm_R
            {
              OFFSET -24.3289 0.000322201 0
              CHANNELS 6 Xposition Yposition Zposition Zrotation Xrotation Yrotation
              JOINT Hand_R
              {
                OFFSET -22.2915 -0.000108084 0
                CHANNELS 6 Xposition Yposition Zposition Zrotation Xrotation Yrotation
                End Site
                {
                  OFFSET 0 0 0
                }
              }
            }
          }
        }
      }
    }
    JOINT UpperLeg_L
    {
      OFFSET -2.19248 -6.46944 0
      CHANNELS 6 Xposition Yposition Zposition Zrotation Xrotation Yrotation
      JOINT LowerLeg_L
      {
        OFFSET 39.0811 0 -1.23785e-05
        CHANNELS 6 Xposition Yposition Zposition Zrotation Xrotation Yrotation
        JOINT Foot_L
        {
          OFFSET 40.9854 0 -1.26872e-05
          CHANNELS 6 Xposition Yposition Zposition Zrotation Xrotation Yrotation
          JOINT Toes_L
          {
            OFFSET 11.7543 0 0
            CHANNELS 6 Xposition Yposition Zposition Zrotation Xrotation Yrotation
            End Site
            {
              OFFSET 0 0 0
            }
          }
        }
      }
    }
    JOINT UpperLeg_R
    {
      OFFSET -2.19251 6.46944 0
      CHANNELS 6 Xposition Yposition Zposition Zrotation Xrotation Yrotation
      JOINT LowerLeg_R
      {
        OFFSET -39.0811 -0.00228153 -0.0401928
        CHANNELS 6 Xposition Yposition Zposition Zrotation Xrotation Yrotation
        JOINT Foot_R
        {
          OFFSET -40.9854 0 0
          CHANNELS 6 Xposition Yposition Zposition Zrotation Xrotation Yrotation
          JOINT Toes_R
          {
            OFFSET -11.7543 0 0
            CHANNELS 6 Xposition Yposition Zposition Zrotation Xrotation Yrotation
            End Site
            {
              OFFSET 0 0 0
            }
          }
        }
      }
    }
  }
}
MOTION
Frames:	6
Frame Time:	0.0333333
0 0 0 0 0 -0 -158.055 84.4052 -332.407 94.6627 4.69942 -18.1541 15.7357 5.1072e-06 -5.51765e-07 76.0357 80.3546 -77.5734 8.98455 -0.406207 -4.3199e-07 10.9198 -4.66301 -2.62889 16.3773 -1.3905e-06 -6.99897e-07 -13.709 -4.81441 2.12813 6.45672 -1.25837e-06 -1.02172e-07 -5.08278 -1.45517 5.19071 12.9942 -0.242716 4.98039 -90.1108 3.50169 -103.216 5.34809 -7.22636e-06 -6.2814e-07 -67.1179 16.1147 2.59205 24.3286 1.87007e-05 4.90208e-06 18.1455 -2.08157 -96.3234 22.2916 -9.88446e-07 4.63217e-06 24.8644 5.18445 3.05548 12.9945 -0.242716 -4.98039 90.0859 -1.0495 -100.243 -5.34813 -1.25947e-06 -3.79883e-06 -80.8363 -5.29173 16.6386 -24.3289 0.000322201 -8.65921e-06 10.9216 10.958 -45.8107 -22.2915 -0.000108084 -4.47941e-06 27.2517 5.26701 1.01206 -2.19248 -6.46944 -1.22533e-07 169.984 -10.7227 -22.421 39.0811 -6.73843e-06 -1.23785e-05 0.410734 -0.374257 44.9342 40.9854 -6.48686e-06 -1.26872e-05 9.74667 7.91412 -83.8574 11.7543 -2.30145e-07 3.05095e-06 0.554489 -0.797589 -25.1375 -2.19251 6.46944 -1.45247e-06 178.624 2.47817 131.475 -39.0811 -0.00228153 -0.0401928 -0.997764 -0.231275 101.884 -40.9854 7.72618e-06 5.99936e-06 13.4265 -25.6422 -34.9598 -11.7543 -5.6619e-06 -5.58687e-06 0.503396 -0.560474 -20.7671 
0 0 0 0 0 -0 -159.153 85.7411 -322.753 91.069 7.45215 -19.2568 15.7357 5.1072e-06 -5.51765e-07 68.5195 80.8658 -68.014 8.98455 -0.406207 -4.3199e-07 9.30956 -6.64588 1.55281 16.3773 -1.3905e-06 -6.99897e-07 -12.8361 -5.16568 -1.38516 6.45672 -1.25837e-06 -1.02172e-07 -3.5942 -3.37409 3.42727 12.9942 -0.242716 4.98039 -90.0848 -2.22942 -107.097 5.34809 -7.22636e-06 -6.2814e-07 -65.0521 9.62908 -17.816 24.3286 1.87007e-05 4.90208e-06 27.3062 -5.21879 -99.9858 22.2916 -9.88446e-07 4.63217e-06 17.2572 5.26099 1.16129 12.9945 -0.242716 -4.98039 89.8736 1.07073 -98.2285 -5.34813 -1.25947e-06 -3.79883e-06 -72.8367 -0.548672 31.6455 -24.3289 0.000322201 -8.65921e-06 16.6931 20.1144 -41.1193 -22.2915 -0.000108084 -4.47941e-06 25.591 5.33652 -1.0303 -2.19248 -6.46944 -1.22534e-07 177.504 -14.3108 -14.1353 39.0811 -6.73843e-06 -1.23785e-05 0.122564 -0.137111 36.3236 40.9854 -6.48686e-06 -1.26872e-05 6.87777 14.169 -74.4231 11.7543 -2.30145e-07 3.05095e-06 2.12539 -0.949057 -36.6316 -2.19251 6.46944 -1.45247e-06 -178.061 -2.06436 121.331 -39.0811 -0.00228153 -0.0401928 -0.742194 -0.112652 96.9389 -40.9854 7.72618e-06 5.99936e-06 10.0132 -26.828 -43.4269 -11.7543 -5.6619e-06 -5.58687e-06 0.451191 -0.498394 -20.316 
0 0 0 0 0 -0 -160.432 87.9706 -313.055 86.9607 10.2349 -23.1642 15.7357 5.1072e-06 -5.51765e-07 56.7283 81.8723 -53.7482 8.98455 -0.406207 -4.3199e-07 6.12304 -8.93701 6.44221 16.3773 -1.3905e-06 -6.99897e-07 -11.7601 -5.33834 -4.12789 6.45672 -1.25837e-06 -1.02172e-07 -3.13095 -3.08863 0.818943 12.9942 -0.242716 4.98039 -90.8763 -10.5345 -109.772 5.34809 -7.22636e-06 -6.2814e-07 -70.6894 -0.577335 -30.1718 24.3286 1.87007e-05 4.90208e-06 16.2932 -6.12583 -110.151 22.2916 -9.88446e-07 4.63217e-06 19.6076 5.06606 5.74014 12.9945 -0.242716 -4.98039 90.6838 -3.27494 -93.2481 -5.34813 -1.25947e-06 -3.79883e-06 -74.7994 11.0805 45.4475 -24.3289 0.000322201 -8.65921e-06 4.59417 4.0387 -48.9634 -22.2915 -0.000108084 -4.47941e-06 28.4562 5.44378 -4.31332 -2.19248 -6.46944 -1.22533e-07 -175.785 -15.4437 -8.995 39.0811 -6.73843e-06 -1.23785e-05 0.037283 -0.0554762 24.1105 40.9854 -6.48686e-06 -1.26872e-05 4.1819 16.31 -56.4036 11.7543 -2.30144e-07 3.05095e-06 1.85306 -3.62631 -46.5503 -2.19251 6.46944 -1.45247e-06 -176.422 -6.74768 112.985 -39.0811 -0.00228153 -0.0401928 -0.338871 0.0203567 82.8049 -40.9854 7.72618e-06 5.99936e-06 8.90391 -26.7927 -50.285 -11.7543 -5.6619e-06 -5.58687e-06 0.455344 -0.503285 -20.3516 
0 0 0 0 0 -0 -161.478 90.0375 -303.112 84.2839 11.2824 -26.0412 15.7357 5.1072e-06 -5.51765e-07 43.5378 81.565 -38.8764 8.98455 -0.406207 -4.3199e-07 4.46189 -12.345 9.82418 16.3773 -1.3905e-06 -6.99897e-07 -12.0507 -4.40913 -6.65187 6.45672 -1.25837e-06 -1.02172e-07 -1.46841 -1.13125 -1.68041 12.9942 -0.242716 4.98039 -91.4625 -16.1345 -110.251 5.34809 -7.22636e-06 -6.2814e-07 -71.7216 -11.0385 -35.0892 24.3286 1.87007e-05 4.90208e-06 6.90532 -4.75542 -124.499 22.2916 -9.88446e-07 4.63217e-06 23.5614 4.91692 9.03795 12.9945 -0.242716 -4.98039 91.9691 -9.32307 -93.0091 -5.34813 -1.25947e-06 -3.79883e-06 -76.8258 12.9701 56.5764 -24.3289 0.000322201 -8.65921e-06 1.42429 0.754894 -62.1903 -22.2915 -0.000108084 -4.47941e-06 31.1135 5.48804 -6.13848 -2.19248 -6.46944 -1.22534e-07 -171.924 -12.6356 -5.01155 39.0811 -6.73843e-06 -1.23785e-05 0.0185225 -0.063826 13.8645 40.9854 -6.48686e-06 -1.26872e-05 1.97093 12.7413 -31.9663 11.7543 -2.30145e-07 3.05095e-06 2.01644 -4.8524 -55.5626 -2.19251 6.46944 -1.45247e-06 -177.267 -10.0654 110.807 -39.0811 -0.00228153 -0.0401928 -0.0788722 0.0223271 62.0541 -40.9854 7.72618e-06 5.99936e-06 8.27614 -29.0726 -57.2836 -11.7543 -5.6619e-06 -5.58687e-06 0.41622 -0.457356 -20.0161 
0 0 0 0 0 -0 -162.025 90.9447 -292.409 84.6453 10.2423 -24.8038 15.7357 5.1072e-06 -5.51764e-07 41.585 80.1613 -37.2945 8.98455 -0.406207 -4.3199e-07 6.02217 -14.748 9.38921 16.3773 -1.3905e-06 -6.99897e-07 -13.4725 -3.08399 -8.03244 6.45672 -1.25837e-06 -1.02172e-07 -1.72432 -0.789553 -1.67381 12.9942 -0.242716 4.98039 -90.8531 -17.9487 -107.767 5.34809 -7.22636e-06 -6.2814e-07 -69.9908 -15.2762 -36.3279 24.3286 1.87007e-05 4.90208e-06 11.2282 -11.9791 -136.239 22.2916 -9.88446e-07 4.63217e-06 23.2533 5.09644 5.16601 12.9945 -0.242716 -4.98039 92.1181 -12.2559 -95.116 -5.34813 -1.25947e-06 -3.79883e-06 -73.7431 6.69972 63.1116 -24.3289 0.000322201 -8.65921e-06 0.231263 0.07999 -71.5139 -22.2915 -0.000108084 -4.47941e-06 26.4016 5.53858 -8.16531 -2.19248 -6.46944 -1.22533e-07 -171.505 -4.17742 -2.92093 39.0811 -6.73843e-06 -1.23785e-05 0.0542176 -0.152736 18.1048 40.9854 -6.48686e-06 -1.26872e-05 -3.92166 1.50731 -20.3405 11.7543 -2.30145e-07 3.05095e-06 0.683518 -0.8748 -24.6704 -2.19251 6.46944 -1.45247e-06 -178.845 -11.0804 117.951 -39.0811 -0.00228153 -0.0401928 0.0136924 0.000979123 40.0314 -40.9854 7.72618e-06 5.99936e-06 6.35915 -30.4916 -63.7111 -11.7543 -5.6619e-06 -5.58687e-06 0.415157 -0.456095 -20.0069 
0 0 0 0 0 -0 -162.419 90.32 -280.717 86.3662 8.62994 -20.5656 15.7357 5.1072e-06 -5.51765e-07 47.4565 78.9335 -44.7505 8.98455 -0.406207 -4.3199e-07 9.1305 -14.8575 6.62414 16.3773 -1.3905e-06 -6.99897e-07 -14.846 -2.9297 -8.98811 6.45672 -1.25837e-06 -1.02172e-07 -3.94909 -1.48014 0.999671 12.9942 -0.242716 4.98039 -90.5713 -16.7783 -106.979 5.34809 -7.22636e-06 -6.2814e-07 -69.1374 -8.9131 -29.9685 24.3286 1.87007e-05 4.90208e-06 9.43316 -12.8652 -143.279 22.2916 -9.88446e-07 4.63217e-06 20.1308 5.43432 -4.21592 12.9945 -0.242716 -4.98039 91.7949 -11.852 -96.3251 -5.34813 -1.25947e-06 -3.79883e-06 -73.9534 1.29079 62.9457 -24.3289 0.000322201 -8.65921e-06 -6.63547 -1.77089 -75.0967 -22.2915 -0.000108084 -4.47941e-06 39.2369 5.58846 -10.4353 -2.19248 -6.46944 -1.22533e-07 -174.569 3.21655 -1.54155 39.0811 -6.73843e-06 -1.23785e-05 -0.0477284 0.0869912 32.4346 40.9854 -6.48686e-06 -1.26872e-05 -6.15283 5.0921 -19.4371 11.7543 -2.30145e-07 3.05095e-06 0.494307 -0.606112 -22.2775 -2.19251 6.46944 -1.45247e-06 -177.521 -9.56864 127.848 -39.0811 -0.00228153 -0.0401928 0.00962669 -0.0244662 29.5037 -40.9854 7.72618e-06 5.99936e-06 3.39612 -27.8744 -64.82 -11.7543 -5.6619e-06 -5.58687e-06 0.402066 -0.440864 -19.8952 
